PathFileType	4	(X/Y/Z)	Patient4_TMGait_0pt8_01_right_14.trc.trc
DataRate	CameraRate	NumFrames	NumMarkers	Units	OrigDataRate	OrigDataStartFrame	OrigNumFrames
90.322580645161	90.322580645161	4	33	mm	90.322580645161	106	       141
Frame#	Time	Sacral			L.Shoulder			Chest			R.Shoulder			Neck			R.ASIS			L.ASIS			R.Thigh.Superior			R.Thigh.Lateral			R.Thigh.Inferior			R.Patella			L.Thigh.Superior			L.Thigh.Lateral			L.Thigh.Inferior			L.Patella			L.Shank.Superior			L.Shank.Lateral			L.Shank.Inferior			R.Shank.Superior			R.Shank.Lateral			R.Shank.Inferior			R.Heel			R.Midfoot.Superior			R.Midfoot.Lateral			R.Toe			L.Heel			L.Midfoot.Lateral			L.Midfoot.Superior			L.Toe			L.Elbow			L.Wrist			R.Elbow			R.Wrist			
		X1	Y1	Z1	X2	Y2	Z2	X3	Y3	Z3	X4	Y4	Z4	X5	Y5	Z5	X6	Y6	Z6	X7	Y7	Z7	X8	Y8	Z8	X9	Y9	Z9	X10	Y10	Z10	X11	Y11	Z11	X12	Y12	Z12	X13	Y13	Z13	X14	Y14	Z14	X15	Y15	Z15	X16	Y16	Z16	X17	Y17	Z17	X18	Y18	Z18	X19	Y19	Z19	X20	Y20	Z20	X21	Y21	Z21	X22	Y22	Z22	X23	Y23	Z23	X24	Y24	Z24	X25	Y25	Z25	X26	Y26	Z26	X27	Y27	Z27	X28	Y28	Z28	X29	Y29	Z29	X30	Y30	Z30	X31	Y31	Z31	X32	Y32	Z32	X33	Y33	Z33	

106	16.622500000000	892.689755652550	1007.358316561241	403.655111356453	1080.725839665814	1435.705390149617	231.994215681241	1171.990812676372	1367.813955263919	400.952157620262	1075.340340535130	1441.391820637733	568.596578022921	1057.276581825633	1498.350926335654	386.904124215053	1113.775414218016	948.953941029736	534.172151754179	1117.910119633310	968.390701063743	258.295007635207	1206.641667346049	789.467928754470	511.783922630734	1173.687808280790	666.214225712997	586.457074542120	1270.019583204180	632.782373866024	513.111560151114	1297.135918947033	523.465605312045	538.949785948674	1150.083149967721	748.777016491611	288.627250904578	1052.413588868898	638.253465192879	227.534727649190	1128.883301399628	554.580827510156	291.538406207252	1123.133459970246	486.519623504600	302.964258705952	1095.528883493089	415.908526228805	295.086455052619	1002.614092581114	303.465420637206	245.216208269034	1049.330141902218	192.136156824273	319.024869048395	1231.754106642806	440.453743208665	541.511030535216	1114.612429940815	382.701083152008	595.056308078412	1120.428842062416	272.715294821161	546.074879499301	933.901637567251	176.750292401240	505.658235958652	1107.863206150572	153.357768127290	561.170869145465	997.407263092006	130.534160129947	584.944354484154	1189.263113418965	54.298985955534	593.843118683042	918.732362254550	39.036921640781	367.215084642362	989.514243717399	35.338970074350	283.545210809432	1073.753275355120	96.011237752764	308.046033003579	1200.988404127977	45.022115748232	274.439541747467	1108.423293082015	1090.673117224833	96.979429091029	1256.885888428392	875.187810557915	106.197347690589	1007.753121238231	1097.490521765080	679.155931246799	1180.050987788585	904.333995292066	662.632913117366	
107	16.633571428571	891.574926371001	1006.724950500441	402.575051575227	1081.461522673249	1435.764069519843	232.542205865057	1171.229062643506	1367.321928551884	402.066356001892	1073.329617459383	1440.411909354438	569.152098408900	1056.874995428124	1498.043964940500	387.414830340797	1112.327142117153	948.988624369705	534.183097815821	1118.197711632649	968.748624594935	257.875330022658	1206.591520400309	791.608644614286	511.343691846556	1175.789236396595	667.946473477606	586.358553872362	1271.931344247807	635.594732961385	512.525855085212	1301.514265578350	528.011486195608	538.733892857389	1147.093773306655	747.645443246125	288.730039907633	1047.727198776152	638.278013511538	227.052389199609	1122.371987351731	553.606474269619	291.410693122852	1115.592290071728	485.824016001308	302.868118124880	1087.914268325613	415.496705359507	294.796961946621	994.590641799256	303.381463154022	244.798316182853	1040.860667826574	192.019808414179	318.961004156483	1239.842514397918	442.997723637325	541.930058069789	1126.366430557935	379.259456144858	596.228751702451	1137.995073824277	269.499567403402	547.588315296458	956.898734543705	163.651617532365	508.169941717175	1132.082574943384	149.416702765382	563.395811428878	1022.921692507142	121.106480249954	587.536920947688	1218.406481660972	54.732531685400	596.297743695661	909.801864661482	39.017725765434	367.167300840187	980.582240269873	35.285012843725	283.505922658464	1064.869406399399	96.015278633408	307.981691208304	1192.094797355477	44.980671353453	274.440563309816	1119.575676236016	1093.486389268130	94.457239495087	1278.386172589533	885.438161464648	104.408661148166	998.569120648552	1097.134414503787	677.841214176395	1153.149384546059	888.257906279735	667.398706132115	
108	16.644642857143	890.593890041628	1006.030160148808	401.664149160349	1082.248140558628	1435.761141096745	233.265536731103	1170.587464642682	1366.711941156592	403.278564737706	1071.531196992420	1439.311714072029	569.855562199530	1056.536861528399	1497.623758222246	388.101620912167	1110.982774421596	948.790428119398	534.236882835147	1118.444938864921	968.942821249076	257.567732560725	1206.238835754308	793.136484430755	510.967116434889	1177.164377880609	669.131851846374	586.274030542604	1273.079195858698	637.661936462988	512.026235850048	1304.942549166581	532.026684478417	538.519373104333	1143.990465926996	746.412913704490	288.820589465594	1042.824134720076	638.337870933972	226.571940743166	1115.565364995200	552.633154650523	291.253040626882	1107.770760273889	485.172872878107	302.684079233298	1080.020156269541	415.159352700091	294.449288768435	986.328064870447	303.321093558884	244.365257046060	1032.279926306343	191.950690722469	318.862190421622	1247.211252570516	445.231272765862	542.354685785820	1137.974934160593	375.479943349179	597.510715399947	1155.666608791746	266.325866674615	549.180412252563	980.884112055026	150.497385222728	510.807122653157	1156.783915534474	145.769605462153	565.602819767108	1049.322327139104	111.866659133680	590.208823997658	1247.994875922475	55.996052739652	598.733474965989	900.866612060118	38.993840703579	367.118180987827	971.633104245329	35.225851057065	283.468094664873	1055.964914604738	96.035494675515	307.899827074193	1183.178499382183	44.976559885683	274.441970774000	1130.119211198087	1096.569636552586	92.213695633303	1299.032717925527	896.575700995583	103.052688451081	989.962485306107	1096.740281890401	676.641488479856	1125.621315048493	874.237294952157	671.844638792391	
109	16.655714285714	889.780086939763	1005.271832226425	400.907176439877	1083.082957563212	1435.686445936758	234.166089117667	1170.075464708539	1365.982745522796	404.589513219129	1069.952567842576	1438.092299450578	570.706423837850	1056.268745503012	1497.081263822840	388.963627083272	1109.773131647755	948.362167328607	534.353388608679	1118.633817713144	968.931680562447	257.408981475867	1205.591883558807	794.009090129135	510.665720099500	1177.789652080551	669.722706651924	586.230858782757	1273.479466800699	638.945943477482	511.657731764019	1307.414310015047	535.450490279064	538.325247683223	1140.785747960712	745.062629742484	288.895567461875	1037.720644018860	638.426969031059	226.093077307781	1108.494272938709	551.658609987299	291.059388927358	1099.708171373180	484.560200248812	302.402409760031	1071.866201685853	414.901080038607	294.044528283671	977.843222853193	303.292648298229	243.921244205042	1023.591725738936	191.928658064887	318.726777784631	1253.835605163734	447.142279865557	542.784470998084	1149.403507341379	371.433712687245	598.884734078324	1173.329197602626	263.306239497427	550.810285462399	1005.750366533896	137.538347939121	513.499105995256	1181.794715953976	142.582142415371	567.742194708070	1076.455521917186	103.027705051234	592.881309656579	1277.770659689515	58.228902187541	601.054178751107	891.923392633847	38.971283914412	367.069623745756	962.667258579915	35.165034618517	283.432547444148	1047.040253234947	96.066974590248	307.802435056371	1174.236944858908	45.006415376969	274.444085599773	1139.994626324563	1099.846658530779	90.236668750606	1318.727550261129	908.528852833084	102.109870650897	981.858757173175	1096.367859343176	675.586288649832	1097.816366828906	862.418823703875	675.927202678031	
